<svg width="210" height="750" viewBox="0 0 210 750" fill="none" xmlns="http://www.w3.org/2000/svg">
<path fill-rule="evenodd" clip-rule="evenodd" d="M170 450H43H40V459V498V500V730H80V750H100V730V500H110V730V750H130V730H170V500V498V450Z" fill="#3D6386"/>
<path fill-rule="evenodd" clip-rule="evenodd" d="M19 37H189V179H159V209H150V229H140V239H130V249H120V259H110V279H90V259H80V249H70V239H60V229H50V209H49V179H19V37ZM10 279H41V459H10V279ZM201 279H170V459H201V279Z" fill="#FFE5C1"/>
<path fill-rule="evenodd" clip-rule="evenodd" d="M80 89H60V109H80V89ZM150 89H130V109H150V89Z" fill="#9D7979"/>
<path fill-rule="evenodd" clip-rule="evenodd" d="M39.118 37H19V61H39.118V37ZM190 37H169.882V61H190V37Z" fill="#5E4242"/>
<path fill-rule="evenodd" clip-rule="evenodd" d="M19 0H150V10H160V20H180V30H190V38H182H180H170V37H160H159H150H19V0Z" fill="#442E2E"/>
<path fill-rule="evenodd" clip-rule="evenodd" d="M80 730H0V750H80V730ZM210 730H130V750H210V730Z" fill="#9C6343"/>
<path fill-rule="evenodd" clip-rule="evenodd" d="M160 230H180V240H200V250V260H170V270V279V280V290H40V280V279V270V260H10V250V240H30V230H50V240H60V250H70V260H80V270H90V279H110V270H120V260H130V250H140V240H160V230ZM40 310H170V330H40V310ZM170 350H40V370H170V350ZM40 390H170V410H40V390ZM40 430H170V450H40V430Z" fill="#679D90"/>
<path fill-rule="evenodd" clip-rule="evenodd" d="M50 209H40V220H30V230H10V240H30V230H40H50V240H60V250H70V260H80V270H90V259H80V249H70V239H60V229H50V209ZM10 260H40V280H10V260ZM170 260H200V280H170V260ZM170 410H40V430H170V410ZM40 370H170V390H40V370ZM170 330H40V350H170V330ZM40 290H170V310H40V290ZM140 230H150V210H160V220H170H180V230H170H160V231V240H140V250H130V260H120V270H110V259H120V249H130V239H140V230ZM200 230H180V240H200V230Z" fill="#18401C"/>
</svg>
